<svg xmlns="http://www.w3.org/2000/svg" viewBox="0 0 874 856">
  <circle cx="417.00" cy="431.40" r="413.64" fill="#315972"/>
  <path d="M 448.67 756.67 L 435.67 766.00 L 433.00 773.33 L 435.33 789.00 L 446.00 796.67 L 460.33 799.00 L 470.00 788.67 L 465.67 787.33 L 460.00 792.67 L 451.33 790.67 L 442.67 782.00 L 444.00 770.67 L 449.67 763.67 L 467.00 766.00 L 471.33 761.33 L 464.67 756.67 Z M 364.67 753.00 L 362.67 792.67 L 394.00 791.33 L 405.00 776.67 L 401.67 765.67 L 381.00 752.67 L 369.33 750.33 Z M 374.67 761.67 L 382.33 761.33 L 391.67 767.00 L 394.33 777.33 L 389.67 786.00 L 377.33 787.67 L 372.33 784.67 Z M 517.00 753.33 L 508.67 750.67 L 509.00 767.33 L 506.00 770.67 L 492.33 769.67 L 487.67 753.00 L 479.33 757.00 L 486.67 795.33 L 490.67 793.33 L 495.33 777.33 L 509.33 775.67 L 516.00 790.00 L 519.33 788.67 L 522.00 780.33 Z M 327.00 742.67 L 323.00 748.67 L 323.33 762.67 L 319.00 765.67 L 318.67 776.33 L 314.67 781.33 L 337.67 789.33 L 347.33 787.33 L 343.33 781.67 L 326.00 776.67 L 325.67 772.67 L 350.00 771.33 L 349.00 766.33 L 334.67 762.67 L 331.67 757.67 L 340.00 753.00 L 353.33 759.00 L 355.67 751.67 L 349.33 747.00 Z M 555.67 737.67 L 554.00 746.67 L 560.67 769.33 L 553.33 777.33 L 543.00 774.33 L 532.33 747.67 L 525.67 747.00 L 531.33 771.67 L 542.00 783.67 L 555.67 784.00 L 566.67 773.67 L 565.67 754.00 Z M 316.67 740.00 L 286.00 730.67 L 286.67 736.67 L 294.33 742.00 L 286.33 765.00 L 287.00 774.00 L 299.33 757.33 L 301.67 746.00 L 313.67 746.67 Z M 601.33 724.67 L 582.33 727.33 L 570.33 733.67 L 587.67 770.33 L 591.67 768.33 L 590.67 755.00 L 601.67 755.33 L 609.67 760.67 L 614.00 756.33 L 607.00 747.00 L 609.33 735.33 Z M 599.00 733.00 L 601.33 739.67 L 598.33 745.67 L 585.33 747.33 L 582.67 734.00 Z M 273.33 722.00 L 265.33 728.67 L 255.00 751.67 L 257.67 761.67 L 278.00 729.00 Z M 636.00 702.00 L 623.33 709.67 L 616.00 723.67 L 623.00 741.00 L 640.00 746.67 L 655.67 739.33 L 661.33 730.67 L 654.67 727.67 L 650.33 735.33 L 643.33 738.33 L 628.67 733.33 L 625.67 718.33 L 635.00 710.00 L 646.33 708.00 Z M 227.33 697.33 L 223.00 709.00 L 208.00 727.33 L 208.00 734.67 L 215.00 735.33 L 225.33 718.33 L 229.67 722.00 L 230.33 744.00 L 239.33 750.00 L 256.33 724.67 L 257.67 714.00 L 251.00 712.00 L 246.33 723.00 L 238.33 727.00 L 235.67 705.00 Z M 187.33 673.00 L 174.33 687.33 L 168.33 705.67 L 177.33 716.67 L 191.00 721.00 L 206.33 711.33 L 215.00 701.00 L 216.33 693.33 L 212.00 688.00 L 193.33 710.33 L 181.33 709.67 L 179.00 697.67 L 193.00 675.33 Z M 676.00 672.67 L 675.00 680.33 L 681.67 688.33 L 681.00 693.33 L 668.67 701.67 L 653.67 689.33 L 651.33 697.67 L 668.33 719.00 L 677.67 725.00 L 675.33 705.00 L 687.00 700.00 L 699.00 707.00 L 701.67 702.33 L 685.67 680.00 Z M 465.33 597.67 L 457.33 608.33 L 464.67 604.67 Z M 77.67 607.67 L 83.00 620.00 L 97.33 622.00 L 140.00 611.33 L 203.67 603.67 L 253.67 603.33 L 298.00 608.00 L 336.67 618.67 L 368.33 633.67 L 381.67 645.67 L 391.67 665.33 L 407.00 677.67 L 423.33 684.67 L 440.00 685.33 L 471.33 677.33 L 485.67 663.00 L 501.67 637.00 L 570.67 609.33 L 604.33 604.00 L 654.67 602.33 L 720.00 609.67 L 782.67 623.00 L 792.67 603.67 L 776.67 595.33 L 696.67 580.00 L 655.67 576.33 L 580.33 582.00 L 550.00 589.00 L 505.67 606.67 L 472.00 629.67 L 459.67 649.33 L 437.00 658.33 L 425.00 654.33 L 403.33 629.33 L 379.33 611.67 L 329.00 589.67 L 315.67 589.67 L 311.33 585.67 L 272.33 577.67 L 190.33 576.00 L 108.67 589.67 L 104.33 594.00 L 86.00 597.33 Z M 790.00 572.00 L 786.33 566.00 L 774.00 564.33 L 770.33 560.00 L 725.67 550.33 L 670.00 545.33 L 616.33 548.00 L 579.00 554.67 L 539.00 567.67 L 484.67 599.33 L 461.67 619.33 L 461.00 625.67 L 472.67 618.67 L 476.00 611.67 L 486.33 610.00 L 488.33 605.67 L 501.00 601.67 L 518.00 589.00 L 563.00 574.00 L 598.00 567.00 L 672.67 563.00 L 731.00 570.67 L 779.00 582.00 L 786.33 580.67 Z M 83.00 568.67 L 84.33 578.00 L 92.33 580.67 L 143.00 568.33 L 209.00 561.67 L 281.67 567.00 L 339.67 581.67 L 389.33 606.67 L 421.33 630.33 L 406.00 611.67 L 356.67 576.67 L 333.00 564.67 L 261.33 545.67 L 211.33 543.00 L 159.67 547.33 L 91.67 561.33 Z M 817.67 353.00 L 810.00 353.33 L 807.33 358.67 L 799.67 353.67 L 778.33 362.00 L 784.00 368.67 L 801.00 365.00 L 799.33 372.00 L 785.33 385.33 L 787.00 389.00 L 796.33 389.67 L 824.33 379.00 L 823.00 376.00 L 808.67 379.00 L 802.00 374.67 L 818.33 360.33 Z M 49.67 353.33 L 55.00 365.33 L 73.33 379.00 L 84.67 381.33 L 78.67 370.00 L 83.00 360.67 L 93.00 355.33 L 91.67 350.67 Z M 61.67 358.00 L 71.33 357.33 L 74.00 365.67 L 68.00 365.67 Z M 424.00 333.67 L 421.33 397.33 L 372.33 396.33 L 365.67 411.33 L 373.00 420.00 L 422.67 422.00 L 421.33 558.67 L 441.00 561.00 L 444.67 556.67 L 446.67 423.00 L 499.67 420.67 L 501.00 402.67 L 499.00 398.33 L 448.67 397.00 L 446.67 336.67 Z M 766.00 320.67 L 778.67 336.67 L 774.33 348.33 L 776.67 353.00 L 809.67 325.67 L 808.33 322.00 L 792.00 318.33 L 770.33 317.67 Z M 785.67 325.00 L 793.67 326.00 L 793.00 335.33 L 786.67 333.33 Z M 72.67 302.67 L 60.67 322.67 L 62.33 329.67 L 91.00 342.00 L 97.67 341.00 L 98.33 336.33 L 87.67 326.67 L 89.00 312.00 L 82.00 315.33 L 79.67 326.00 L 72.00 322.33 Z M 792.67 290.33 L 762.33 302.00 L 756.67 309.33 L 763.67 313.00 L 793.33 295.33 Z M 90.33 269.67 L 77.67 285.33 L 77.67 292.33 L 109.00 308.67 L 113.00 302.67 L 106.67 294.67 L 125.33 285.00 L 113.00 283.67 L 104.00 270.67 Z M 98.33 276.00 L 102.33 282.33 L 101.00 290.00 L 88.67 291.00 L 88.67 281.00 Z M 103.00 524.33 L 107.67 532.33 L 118.33 535.00 L 209.00 527.33 L 298.33 542.33 L 369.00 573.00 L 417.67 609.00 L 413.00 598.33 L 381.00 568.00 L 322.00 531.00 L 316.33 424.00 L 324.00 392.33 L 339.67 369.33 L 405.67 316.67 L 433.33 277.33 L 441.67 272.33 L 473.33 315.33 L 529.33 359.33 L 545.00 376.33 L 562.00 420.00 L 559.33 531.33 L 524.67 548.00 L 493.33 569.33 L 468.33 592.33 L 470.67 601.33 L 492.67 582.00 L 548.67 552.33 L 605.67 535.67 L 693.67 529.00 L 715.67 534.00 L 720.00 529.67 L 760.67 536.00 L 770.00 532.67 L 770.33 523.00 L 762.67 517.67 L 681.00 512.33 L 666.67 504.33 L 657.33 409.67 L 659.67 405.33 L 678.00 413.33 L 703.67 438.67 L 714.00 457.33 L 729.67 503.00 L 736.33 498.33 L 738.67 469.33 L 735.67 445.00 L 728.00 427.33 L 709.33 402.00 L 681.67 381.33 L 562.67 339.33 L 518.67 319.33 L 443.00 263.33 L 430.00 264.00 L 431.33 267.67 L 402.67 291.33 L 349.33 325.33 L 305.00 343.33 L 272.33 350.00 L 252.00 360.67 L 235.33 361.67 L 180.33 390.00 L 156.00 412.33 L 142.00 434.67 L 137.00 465.00 L 137.67 490.67 L 142.33 502.33 L 146.00 502.67 L 166.67 449.00 L 182.33 427.00 L 215.33 402.00 L 219.00 420.33 L 215.00 430.00 L 208.67 507.00 L 133.00 515.67 L 125.67 513.67 L 122.33 518.67 L 113.67 517.00 Z M 591.67 255.67 L 571.00 268.33 L 563.33 280.67 L 560.00 294.33 L 562.67 312.33 L 567.33 321.67 L 585.00 336.33 L 610.67 340.00 L 622.33 337.33 L 641.00 324.33 L 649.00 302.33 L 648.00 286.00 L 641.00 271.33 L 629.33 261.67 L 609.00 254.67 Z M 773.67 254.00 L 768.00 256.00 L 771.00 267.67 L 755.00 278.00 L 745.67 279.33 L 745.67 286.67 L 757.67 278.67 L 761.33 281.00 L 774.00 275.00 L 786.00 281.00 L 785.33 271.33 Z M 261.00 253.33 L 247.33 262.33 L 235.33 277.33 L 230.67 297.00 L 233.33 313.00 L 253.33 333.67 L 272.33 337.67 L 294.67 335.67 L 315.00 315.33 L 320.67 296.33 L 317.67 279.67 L 293.33 255.33 L 282.00 251.67 Z M 99.00 252.33 L 119.67 268.33 L 133.33 271.00 L 110.33 252.67 Z M 757.33 229.00 L 746.33 226.00 L 736.67 235.00 L 740.00 248.67 L 737.33 258.33 L 722.00 241.33 L 721.00 249.67 L 727.00 261.67 L 734.00 265.33 L 745.00 262.00 L 749.33 254.00 L 745.67 240.00 L 748.00 235.33 L 754.00 236.67 L 756.67 245.33 L 763.67 244.00 Z M 127.00 215.33 L 117.33 226.33 L 116.00 241.67 L 130.67 255.67 L 150.33 251.67 L 157.67 241.00 L 153.33 231.00 L 144.33 247.00 L 126.67 242.00 L 123.00 232.00 L 132.67 219.33 Z M 740.33 210.00 L 721.33 219.67 L 710.33 231.00 L 712.67 237.00 L 740.00 216.67 Z M 148.00 187.00 L 145.33 195.67 L 165.33 228.33 L 171.00 211.33 L 187.67 202.33 Z M 156.67 198.00 L 164.33 198.67 L 166.33 205.00 L 157.67 204.67 Z M 711.33 178.00 L 690.67 194.67 L 690.00 200.33 L 682.33 202.67 L 686.67 207.33 L 690.67 201.67 L 697.67 203.33 L 698.67 218.33 L 703.33 225.00 L 706.00 211.33 L 717.33 212.67 L 727.33 201.00 L 725.00 191.33 Z M 701.33 194.33 L 706.33 189.00 L 712.00 189.00 L 717.00 192.67 L 719.00 202.00 L 709.33 205.33 Z M 677.00 145.67 L 650.33 176.33 L 653.67 180.00 L 666.33 172.00 L 673.00 175.67 L 675.33 182.00 L 668.33 187.67 L 673.00 196.33 L 698.00 166.67 L 693.00 162.67 L 685.00 171.00 L 676.67 169.33 L 673.00 162.67 L 680.00 153.67 Z M 193.00 145.67 L 189.00 149.67 L 199.00 168.33 L 171.33 165.67 L 181.33 181.33 L 197.33 196.00 L 199.67 188.00 L 191.00 175.67 L 214.67 179.67 L 220.67 175.33 Z M 646.67 124.67 L 630.67 130.33 L 621.67 143.67 L 624.00 159.33 L 633.67 166.67 L 644.67 164.33 L 633.33 157.33 L 630.33 141.00 L 644.33 133.00 L 657.67 142.33 L 660.33 140.00 L 659.67 133.33 Z M 235.67 117.67 L 233.00 125.67 L 241.33 160.00 L 256.33 142.67 L 271.00 140.00 L 243.67 118.67 Z M 244.00 132.33 L 250.00 132.67 L 252.00 139.00 L 247.00 139.00 Z M 584.33 91.33 L 576.67 96.33 L 565.00 125.33 L 571.00 127.00 L 576.00 109.67 L 580.00 109.67 L 588.00 137.00 L 592.00 139.00 L 610.00 110.00 L 606.67 104.00 L 601.67 104.33 L 598.00 120.33 L 594.67 121.33 Z M 291.33 90.67 L 287.00 96.33 L 297.67 117.67 L 295.00 125.67 L 286.00 126.33 L 272.00 102.67 L 264.67 102.00 L 275.00 127.33 L 285.33 135.00 L 295.33 133.67 L 306.67 122.00 Z M 318.33 79.33 L 309.00 86.33 L 308.33 96.67 L 315.33 104.67 L 332.67 108.33 L 331.00 114.33 L 317.00 116.00 L 324.00 123.33 L 332.00 122.33 L 339.33 117.33 L 342.00 106.33 L 334.00 96.67 L 318.67 95.67 L 318.00 88.00 L 330.00 89.33 L 331.00 86.67 Z M 547.67 78.00 L 521.33 111.33 L 526.33 114.67 L 532.67 108.00 L 544.67 111.67 L 549.67 120.00 L 557.00 123.33 L 554.67 84.67 Z M 545.33 92.67 L 549.00 100.67 L 543.67 103.33 L 538.33 95.00 Z M 517.00 70.33 L 512.00 73.67 L 506.00 104.33 L 508.33 109.67 L 513.67 105.67 L 520.00 79.33 Z M 368.67 69.67 L 351.67 71.33 L 349.33 76.33 L 343.00 77.33 L 355.67 85.33 L 362.67 110.33 L 367.67 103.67 L 364.00 79.00 L 371.33 74.67 Z M 478.33 66.67 L 474.33 71.00 L 471.00 101.00 L 478.00 107.00 L 495.33 106.33 L 495.67 101.67 L 481.00 94.33 L 483.33 71.67 Z M 386.33 66.00 L 386.67 102.67 L 393.67 103.33 L 401.00 92.67 L 410.00 103.00 L 416.00 103.67 L 412.00 93.00 L 415.67 70.67 L 401.33 64.00 L 394.67 69.00 Z M 393.00 72.67 L 405.33 74.67 L 407.00 84.67 L 395.33 84.00 Z M 447.00 61.67 L 439.33 65.67 L 428.00 98.33 L 430.00 101.00 L 441.33 93.33 L 451.67 95.67 L 458.33 102.67 L 462.67 100.33 Z M 439.00 79.33 L 446.67 78.00 L 448.33 86.33 L 443.00 87.00 Z " fill="#ffffff" fill-rule="evenodd"/>
</svg>
